<?xml version="1.0" encoding="iso-8859-1"?>
<!-- Generator: Adobe Illustrator 19.0.0, SVG Export Plug-In . SVG Version: 6.00 Build 0)  -->
<svg version="1.1" id="Layer_1" xmlns="http://www.w3.org/2000/svg" xmlns:xlink="http://www.w3.org/1999/xlink" x="0px" y="0px"
	 viewBox="0 0 502.596 502.596" style="enable-background:new 0 0 502.596 502.596;" xml:space="preserve">
<path style="fill:#FFD15C;" d="M492.147,349.518V237.714c0-5.224-2.09-10.449-6.269-14.629l-57.469-57.469
	c-4.18-4.18-8.359-6.269-14.629-6.269h-64.784v190.171H492.147z"/>
<polygon style="fill:#FFFFFF;" points="467.069,258.612 467.069,239.804 411.69,184.424 374.073,184.424 374.073,258.612 "/>
<path style="fill:#F2F2F2;" d="M328.098,74.71H30.302c-11.494,0-20.898,9.404-20.898,20.898v253.91h339.592V95.608
	C348.996,84.114,339.592,74.71,328.098,74.71z"/>
<g>
	<circle style="fill:#FFFFFF;" cx="425.273" cy="372.506" r="15.673"/>
	<circle style="fill:#FFFFFF;" cx="97.176" cy="372.506" r="15.673"/>
</g>
<rect x="51.2" y="157.257" style="fill:#ACB3BA;" width="257.045" height="132.702"/>
<rect x="39.706" y="289.959" style="fill:#40596B;" width="278.988" height="10.449"/>
<path style="fill:#F1543F;" d="M24.033,146.808v18.808c0,16.718,13.584,31.347,31.347,31.347s31.347-13.584,31.347-31.347v-18.808
	C86.727,146.808,24.033,146.808,24.033,146.808z"/>
<path style="fill:#CDD6E0;" d="M86.727,146.808v18.808c0,16.718,13.584,31.347,31.347,31.347s31.347-13.584,31.347-31.347v-18.808
	C149.42,146.808,86.727,146.808,86.727,146.808z"/>
<path style="fill:#F1543F;" d="M148.376,146.808v18.808c0,16.718,13.584,31.347,31.347,31.347c16.718,0,31.347-13.584,31.347-31.347
	v-18.808C211.069,146.808,148.376,146.808,148.376,146.808z"/>
<path style="fill:#CDD6E0;" d="M210.024,146.808v18.808c0,16.718,13.584,31.347,31.347,31.347c16.718,0,31.347-13.584,31.347-31.347
	v-18.808C272.718,146.808,210.024,146.808,210.024,146.808z"/>
<path style="fill:#F1543F;" d="M272.718,146.808v18.808c0,16.718,13.584,31.347,31.347,31.347c16.718,0,31.347-13.584,31.347-31.347
	v-18.808C335.412,146.808,272.718,146.808,272.718,146.808z"/>
<polygon style="fill:#FF7058;" points="86.727,146.808 24.033,146.808 59.559,111.282 107.624,111.282 "/>
<polygon style="fill:#E2E2E2;" points="148.376,146.808 86.727,146.808 107.624,111.282 155.69,111.282 "/>
<polygon style="fill:#FF7058;" points="210.024,146.808 148.376,146.808 155.69,111.282 203.755,111.282 "/>
<polygon style="fill:#E2E2E2;" points="272.718,146.808 210.024,146.808 203.755,111.282 251.82,111.282 "/>
<polygon style="fill:#FF7058;" points="334.367,146.808 272.718,146.808 251.82,111.282 298.841,111.282 "/>
<path style="fill:#84DBFF;" d="M495.282,349.518H6.269c-3.135,0-6.269,2.09-6.269,6.269v27.167c0,3.135,2.09,6.269,6.269,6.269
	h490.057c3.135,0,6.269-2.09,6.269-6.269v-27.167C501.551,352.653,499.461,349.518,495.282,349.518z"/>
<circle style="fill:#40596B;" cx="421.094" cy="372.506" r="55.38"/>
<circle style="fill:#E2E2E2;" cx="421.094" cy="372.506" r="29.257"/>
<circle style="fill:#40596B;" cx="99.265" cy="372.506" r="55.38"/>
<circle style="fill:#E2E2E2;" cx="99.265" cy="372.506" r="29.257"/>
<g>
</g>
<g>
</g>
<g>
</g>
<g>
</g>
<g>
</g>
<g>
</g>
<g>
</g>
<g>
</g>
<g>
</g>
<g>
</g>
<g>
</g>
<g>
</g>
<g>
</g>
<g>
</g>
<g>
</g>
</svg>
